<svg width="24" height="24" xmlns="http://www.w3.org/2000/svg" shape-rendering="crispEdges"><path d="M9 2h1v1H9zM10 2h1v1h-1zM11 2h1v1h-1zM12 2h1v1h-1zM13 2h1v1h-1zM18 2h1v1h-1zM19 2h1v1h-1zM7 3h1v1H7zM8 3h1v1H8z"/><path fill="#FFF" d="M9 3h1v1H9zM10 3h1v1h-1zM11 3h1v1h-1zM12 3h1v1h-1zM13 3h1v1h-1z"/><path d="M14 3h1v1h-1zM15 3h1v1h-1zM17 3h1v1h-1z"/><path fill="#FFF" d="M18 3h1v1h-1z"/><path fill="#6EB4E2" d="M19 3h1v1h-1z"/><path d="M20 3h1v1h-1zM6 4h1v1H6z"/><path fill="#FFF" d="M7 4h1v1H7zM8 4h1v1H8zM9 4h1v1H9zM10 4h1v1h-1zM11 4h1v1h-1zM12 4h1v1h-1zM13 4h1v1h-1zM14 4h1v1h-1zM15 4h1v1h-1z"/><path d="M16 4h1v1h-1zM17 4h1v1h-1z"/><path fill="#6EB4E2" d="M18 4h1v1h-1zM19 4h1v1h-1z"/><path d="M20 4h1v1h-1zM5 5h1v1H5z"/><path fill="#ED8F85" d="M6 5h1v1H6zM7 5h1v1H7zM8 5h1v1H8zM9 5h1v1H9zM10 5h1v1h-1zM11 5h1v1h-1zM12 5h1v1h-1z"/><path fill="#FFF" d="M13 5h1v1h-1zM14 5h1v1h-1zM15 5h1v1h-1zM16 5h1v1h-1z"/><path d="M17 5h1v1h-1zM18 5h1v1h-1zM19 5h1v1h-1zM5 6h1v1H5z"/><path fill="#ED8F85" d="M6 6h1v1H6z"/><path d="M7 6h1v1H7z"/><path fill="#ED8F85" d="M8 6h1v1H8zM9 6h1v1H9zM10 6h1v1h-1z"/><path d="M11 6h1v1h-1z"/><path fill="#ED8F85" d="M12 6h1v1h-1zM13 6h1v1h-1z"/><path fill="#FFF" d="M14 6h1v1h-1zM15 6h1v1h-1zM16 6h1v1h-1z"/><path d="M17 6h1v1h-1zM5 7h1v1H5z"/><path fill="#ED8F85" d="M6 7h1v1H6z"/><path d="M7 7h1v1H7z"/><path fill="#ED8F85" d="M8 7h1v1H8zM9 7h1v1H9zM10 7h1v1h-1z"/><path d="M11 7h1v1h-1z"/><path fill="#ED8F85" d="M12 7h1v1h-1zM13 7h1v1h-1z"/><path fill="#FFF" d="M14 7h1v1h-1zM15 7h1v1h-1zM16 7h1v1h-1z"/><path d="M17 7h1v1h-1zM5 8h1v1H5z"/><path fill="#ED8F85" d="M6 8h1v1H6z"/><path d="M7 8h1v1H7z"/><path fill="#ED8F85" d="M8 8h1v1H8zM9 8h1v1H9zM10 8h1v1h-1z"/><path d="M11 8h1v1h-1z"/><path fill="#ED8F85" d="M12 8h1v1h-1zM13 8h1v1h-1z"/><path fill="#FFF" d="M14 8h1v1h-1zM15 8h1v1h-1zM16 8h1v1h-1z"/><path d="M17 8h1v1h-1zM5 9h1v1H5z"/><path fill="#ED8F85" d="M6 9h1v1H6zM7 9h1v1H7zM8 9h1v1H8zM9 9h1v1H9zM10 9h1v1h-1zM11 9h1v1h-1zM12 9h1v1h-1z"/><path fill="#FFF" d="M13 9h1v1h-1zM14 9h1v1h-1zM15 9h1v1h-1zM16 9h1v1h-1z"/><path d="M17 9h1v1h-1zM6 10h1v1H6z"/><path fill="#FFF" d="M7 10h1v1H7zM8 10h1v1H8zM9 10h1v1H9zM10 10h1v1h-1zM11 10h1v1h-1zM12 10h1v1h-1zM13 10h1v1h-1zM14 10h1v1h-1zM15 10h1v1h-1z"/><path d="M16 10h1v1h-1zM5 11h1v1H5z"/><path fill="#FFF" d="M6 11h1v1H6z"/><path d="M7 11h1v1H7zM8 11h1v1H8zM9 11h1v1H9zM10 11h1v1h-1zM11 11h1v1h-1zM12 11h1v1h-1zM13 11h1v1h-1zM14 11h1v1h-1zM15 11h1v1h-1z"/><path fill="#FFF" d="M16 11h1v1h-1z"/><path d="M17 11h1v1h-1zM4 12h1v1H4z"/><path fill="#FFF" d="M5 12h1v1H5zM6 12h1v1H6z"/><path d="M7 12h1v1H7z"/><path fill="#6EB4E2" d="M8 12h1v1H8zM9 12h1v1H9zM10 12h1v1h-1zM11 12h1v1h-1zM12 12h1v1h-1zM13 12h1v1h-1z"/><path d="M14 12h1v1h-1z"/><path fill="#FFF" d="M15 12h1v1h-1zM16 12h1v1h-1zM17 12h1v1h-1z"/><path d="M18 12h1v1h-1zM4 13h1v1H4z"/><path fill="#FFF" d="M5 13h1v1H5z"/><path d="M6 13h1v1H6z"/><path fill="#6EB4E2" d="M7 13h1v1H7zM8 13h1v1H8zM9 13h1v1H9zM10 13h1v1h-1zM11 13h1v1h-1zM12 13h1v1h-1zM13 13h1v1h-1z"/><path d="M14 13h1v1h-1z"/><path fill="#FFF" d="M15 13h1v1h-1zM16 13h1v1h-1zM17 13h1v1h-1z"/><path d="M18 13h1v1h-1zM4 14h1v1H4zM5 14h1v1H5zM6 14h1v1H6zM7 14h1v1H7z"/><path fill="#FFF" d="M8 14h1v1H8zM9 14h1v1H9z"/><path d="M10 14h1v1h-1zM11 14h1v1h-1zM12 14h1v1h-1zM13 14h1v1h-1zM14 14h1v1h-1zM15 14h1v1h-1zM16 14h1v1h-1zM17 14h1v1h-1zM18 14h1v1h-1zM4 15h1v1H4z"/><path fill="#6EB4E2" d="M5 15h1v1H5z"/><path d="M6 15h1v1H6z"/><path fill="#6EB4E2" d="M7 15h1v1H7zM8 15h1v1H8zM9 15h1v1H9zM10 15h1v1h-1zM11 15h1v1h-1zM12 15h1v1h-1zM13 15h1v1h-1z"/><path d="M14 15h1v1h-1z"/><path fill="#6EB4E2" d="M15 15h1v1h-1zM16 15h1v1h-1zM17 15h1v1h-1z"/><path d="M18 15h1v1h-1zM5 16h1v1H5zM6 16h1v1H6zM7 16h1v1H7z"/><path fill="#6EB4E2" d="M8 16h1v1H8zM9 16h1v1H9zM10 16h1v1h-1zM11 16h1v1h-1z"/><path d="M12 16h1v1h-1zM13 16h1v1h-1zM14 16h1v1h-1zM15 16h1v1h-1zM16 16h1v1h-1zM17 16h1v1h-1zM6 17h1v1H6z"/><path fill="#FFF" d="M7 17h1v1H7zM8 17h1v1H8z"/><path d="M9 17h1v1H9z"/><path fill="#FFF" d="M10 17h1v1h-1zM11 17h1v1h-1zM12 17h1v1h-1zM13 17h1v1h-1zM14 17h1v1h-1z"/><path d="M15 17h1v1h-1zM6 18h1v1H6zM7 18h1v1H7zM8 18h1v1H8zM9 18h1v1H9zM10 18h1v1h-1zM11 18h1v1h-1zM12 18h1v1h-1zM13 18h1v1h-1zM14 18h1v1h-1zM15 18h1v1h-1zM5 19h1v1H5zM6 19h1v1H6z"/><path fill="#6EB4E2" d="M7 19h1v1H7zM8 19h1v1H8z"/><path d="M9 19h1v1H9z"/><path fill="#6EB4E2" d="M10 19h1v1h-1zM11 19h1v1h-1zM12 19h1v1h-1zM13 19h1v1h-1zM14 19h1v1h-1z"/><path d="M15 19h1v1h-1zM16 19h1v1h-1zM17 19h1v1h-1zM4 20h1v1H4zM5 20h1v1H5zM6 20h1v1H6zM7 20h1v1H7zM8 20h1v1H8zM9 20h1v1H9zM10 20h1v1h-1zM11 20h1v1h-1zM12 20h1v1h-1zM13 20h1v1h-1zM14 20h1v1h-1zM15 20h1v1h-1zM16 20h1v1h-1zM17 20h1v1h-1zM18 20h1v1h-1zM5 21h1v1H5zM6 21h1v1H6zM7 21h1v1H7zM8 21h1v1H8zM9 21h1v1H9zM10 21h1v1h-1zM11 21h1v1h-1zM12 21h1v1h-1zM13 21h1v1h-1zM14 21h1v1h-1zM15 21h1v1h-1zM16 21h1v1h-1zM17 21h1v1h-1z"/></svg>